<svg width="22" height="21" viewBox="0 0 22 21" fill="none" xmlns="http://www.w3.org/2000/svg">
<path d="M6.22833 5.88068V3.56924C6.22833 2.95621 6.47186 2.36829 6.90534 1.93482C7.33881 1.50134 7.92673 1.25781 8.53976 1.25781H13.1626C13.7757 1.25781 14.3636 1.50134 14.7971 1.93482C15.2305 2.36829 15.4741 2.95621 15.4741 3.56924V5.88068M1.60547 12.815L5.24597 13.7245C8.92617 14.6444 12.7762 14.6444 16.4564 13.7245L20.0969 12.815" stroke="url(#paint0_linear_157_647)" stroke-width="2.31143" stroke-linecap="round"/>
<path d="M1.60547 8.19229C1.60547 7.57926 1.84899 6.99134 2.28247 6.55786C2.71595 6.12438 3.30387 5.88086 3.9169 5.88086H17.7855C18.3985 5.88086 18.9864 6.12438 19.4199 6.55786C19.8534 6.99134 20.0969 7.57926 20.0969 8.19229V17.438C20.0969 18.051 19.8534 18.639 19.4199 19.0724C18.9864 19.5059 18.3985 19.7495 17.7855 19.7495H3.9169C3.30387 19.7495 2.71595 19.5059 2.28247 19.0724C1.84899 18.639 1.60547 18.051 1.60547 17.438V8.19229Z" stroke="url(#paint1_linear_157_647)" stroke-width="2.31143" stroke-linejoin="round"/>
<path d="M10.8471 11.6571C11.4854 11.6571 12.0028 11.1397 12.0028 10.5014C12.0028 9.86313 11.4854 9.3457 10.8471 9.3457C10.2088 9.3457 9.69141 9.86313 9.69141 10.5014C9.69141 11.1397 10.2088 11.6571 10.8471 11.6571Z" fill="url(#paint2_linear_157_647)"/>
<defs>
<linearGradient id="paint0_linear_157_647" x1="10.8512" y1="1.25781" x2="10.8512" y2="14.4144" gradientUnits="userSpaceOnUse">
<stop stop-color="#FF9C1A"/>
<stop offset="1" stop-color="#E80505"/>
</linearGradient>
<linearGradient id="paint1_linear_157_647" x1="10.8512" y1="5.88086" x2="10.8512" y2="19.7495" gradientUnits="userSpaceOnUse">
<stop stop-color="#FF9C1A"/>
<stop offset="1" stop-color="#E80505"/>
</linearGradient>
<linearGradient id="paint2_linear_157_647" x1="10.8471" y1="9.3457" x2="10.8471" y2="11.6571" gradientUnits="userSpaceOnUse">
<stop stop-color="#FF9C1A"/>
<stop offset="1" stop-color="#E80505"/>
</linearGradient>
</defs>
</svg>
